<svg width="243" height="196" viewBox="0 0 243 196" fill="none" xmlns="http://www.w3.org/2000/svg">
<path d="M19.5249 188H14.3306L5.9458 173.419H5.82715C5.99414 175.994 6.07764 177.831 6.07764 178.93V188H2.42578V168.726H7.58057L15.9521 183.162H16.0444C15.9126 180.657 15.8467 178.886 15.8467 177.849V168.726H19.5249V188ZM27.2769 180.604C27.2769 182.063 27.5142 183.166 27.9888 183.913C28.4722 184.66 29.2544 185.034 30.3354 185.034C31.4077 185.034 32.1768 184.665 32.6426 183.926C33.1172 183.179 33.3545 182.072 33.3545 180.604C33.3545 179.145 33.1172 178.051 32.6426 177.321C32.168 176.592 31.3901 176.227 30.3091 176.227C29.2368 176.227 28.4634 176.592 27.9888 177.321C27.5142 178.042 27.2769 179.136 27.2769 180.604ZM37.4678 180.604C37.4678 183.003 36.835 184.88 35.5693 186.233C34.3037 187.587 32.5415 188.264 30.2827 188.264C28.8677 188.264 27.6196 187.956 26.5386 187.341C25.4575 186.717 24.627 185.825 24.0469 184.665C23.4668 183.504 23.1768 182.151 23.1768 180.604C23.1768 178.196 23.8052 176.324 25.062 174.988C26.3188 173.652 28.0854 172.984 30.3618 172.984C31.7769 172.984 33.0249 173.292 34.106 173.907C35.187 174.522 36.0176 175.405 36.5977 176.557C37.1777 177.708 37.4678 179.057 37.4678 180.604ZM52.207 177.282H53.5254C54.8174 177.282 55.771 177.066 56.3862 176.636C57.0015 176.205 57.3091 175.528 57.3091 174.605C57.3091 173.691 56.9927 173.041 56.3599 172.654C55.7358 172.268 54.7646 172.074 53.4463 172.074H52.207V177.282ZM52.207 180.604V188H48.1201V168.726H53.7363C56.3555 168.726 58.2935 169.205 59.5503 170.163C60.8071 171.112 61.4355 172.558 61.4355 174.5C61.4355 175.634 61.1235 176.645 60.4995 177.532C59.8755 178.411 58.9922 179.101 57.8496 179.602C60.75 183.935 62.6396 186.734 63.5186 188H58.9834L54.3823 180.604H52.207ZM71.7319 175.845C70.8794 175.845 70.2114 176.117 69.728 176.662C69.2446 177.198 68.9678 177.963 68.8975 178.956H74.54C74.5225 177.963 74.2632 177.198 73.7622 176.662C73.2612 176.117 72.5845 175.845 71.7319 175.845ZM72.2988 188.264C69.9258 188.264 68.0713 187.609 66.7354 186.299C65.3994 184.99 64.7314 183.135 64.7314 180.736C64.7314 178.266 65.3467 176.359 66.5771 175.014C67.8164 173.661 69.5259 172.984 71.7056 172.984C73.7886 172.984 75.4102 173.577 76.5703 174.764C77.7305 175.95 78.3105 177.589 78.3105 179.681V181.632H68.8052C68.8491 182.775 69.1875 183.667 69.8203 184.309C70.4531 184.95 71.3408 185.271 72.4834 185.271C73.3711 185.271 74.2104 185.179 75.0015 184.994C75.7925 184.81 76.6187 184.515 77.48 184.111V187.222C76.7769 187.574 76.0254 187.833 75.2256 188C74.4258 188.176 73.4502 188.264 72.2988 188.264ZM91.8633 183.623C91.8633 185.135 91.3359 186.286 90.2812 187.077C89.2354 187.868 87.6665 188.264 85.5747 188.264C84.5024 188.264 83.5884 188.189 82.8325 188.04C82.0767 187.899 81.3691 187.688 80.71 187.407V184.084C81.457 184.436 82.2964 184.73 83.228 184.968C84.1685 185.205 84.9946 185.324 85.7065 185.324C87.1655 185.324 87.895 184.902 87.895 184.058C87.895 183.742 87.7983 183.487 87.605 183.293C87.4116 183.091 87.0776 182.867 86.603 182.621C86.1284 182.366 85.4956 182.072 84.7046 181.738C83.5708 181.263 82.7358 180.824 82.1997 180.419C81.6724 180.015 81.2856 179.554 81.0396 179.035C80.8022 178.508 80.6836 177.862 80.6836 177.097C80.6836 175.788 81.189 174.777 82.1997 174.065C83.2192 173.344 84.6606 172.984 86.5239 172.984C88.2993 172.984 90.0264 173.371 91.7051 174.144L90.4922 177.044C89.7539 176.728 89.064 176.469 88.4224 176.267C87.7808 176.064 87.126 175.963 86.458 175.963C85.2715 175.963 84.6782 176.284 84.6782 176.926C84.6782 177.286 84.8672 177.598 85.2451 177.862C85.6318 178.125 86.4712 178.517 87.7632 179.035C88.9146 179.501 89.7583 179.936 90.2944 180.34C90.8306 180.745 91.2261 181.21 91.481 181.738C91.7358 182.265 91.8633 182.894 91.8633 183.623ZM105.442 188L104.902 186.115H104.691C104.26 186.8 103.649 187.332 102.858 187.71C102.067 188.079 101.167 188.264 100.156 188.264C98.4243 188.264 97.1191 187.802 96.2402 186.879C95.3613 185.948 94.9219 184.612 94.9219 182.872V173.261H98.9429V181.87C98.9429 182.933 99.1318 183.733 99.5098 184.269C99.8877 184.796 100.49 185.06 101.316 185.06C102.441 185.06 103.254 184.687 103.755 183.939C104.256 183.184 104.506 181.936 104.506 180.195V173.261H108.527V188H105.442ZM116.767 188H112.746V167.486H116.767V188ZM127.208 185.06C127.912 185.06 128.755 184.906 129.74 184.599V187.591C128.738 188.04 127.507 188.264 126.048 188.264C124.44 188.264 123.267 187.859 122.528 187.051C121.799 186.233 121.434 185.012 121.434 183.386V176.28H119.509V174.579L121.724 173.234L122.884 170.123H125.455V173.261H129.582V176.28H125.455V183.386C125.455 183.957 125.613 184.379 125.93 184.651C126.255 184.924 126.681 185.06 127.208 185.06ZM143.016 183.623C143.016 185.135 142.488 186.286 141.434 187.077C140.388 187.868 138.819 188.264 136.727 188.264C135.655 188.264 134.741 188.189 133.985 188.04C133.229 187.899 132.521 187.688 131.862 187.407V184.084C132.609 184.436 133.449 184.73 134.38 184.968C135.321 185.205 136.147 185.324 136.859 185.324C138.318 185.324 139.047 184.902 139.047 184.058C139.047 183.742 138.951 183.487 138.757 183.293C138.564 183.091 138.23 182.867 137.755 182.621C137.281 182.366 136.648 182.072 135.857 181.738C134.723 181.263 133.888 180.824 133.352 180.419C132.825 180.015 132.438 179.554 132.192 179.035C131.955 178.508 131.836 177.862 131.836 177.097C131.836 175.788 132.341 174.777 133.352 174.065C134.372 173.344 135.813 172.984 137.676 172.984C139.452 172.984 141.179 173.371 142.857 174.144L141.645 177.044C140.906 176.728 140.216 176.469 139.575 176.267C138.933 176.064 138.278 175.963 137.61 175.963C136.424 175.963 135.831 176.284 135.831 176.926C135.831 177.286 136.02 177.598 136.397 177.862C136.784 178.125 137.624 178.517 138.916 179.035C140.067 179.501 140.911 179.936 141.447 180.34C141.983 180.745 142.378 181.21 142.633 181.738C142.888 182.265 143.016 182.894 143.016 183.623ZM157.504 188H153.483V168.726H164.531V172.074H157.504V177.044H164.043V180.38H157.504V188ZM171.189 180.604C171.189 182.063 171.426 183.166 171.901 183.913C172.384 184.66 173.167 185.034 174.248 185.034C175.32 185.034 176.089 184.665 176.555 183.926C177.029 183.179 177.267 182.072 177.267 180.604C177.267 179.145 177.029 178.051 176.555 177.321C176.08 176.592 175.302 176.227 174.221 176.227C173.149 176.227 172.375 176.592 171.901 177.321C171.426 178.042 171.189 179.136 171.189 180.604ZM181.38 180.604C181.38 183.003 180.747 184.88 179.481 186.233C178.216 187.587 176.454 188.264 174.195 188.264C172.78 188.264 171.532 187.956 170.451 187.341C169.37 186.717 168.539 185.825 167.959 184.665C167.379 183.504 167.089 182.151 167.089 180.604C167.089 178.196 167.717 176.324 168.974 174.988C170.231 173.652 171.998 172.984 174.274 172.984C175.689 172.984 176.937 173.292 178.018 173.907C179.099 174.522 179.93 175.405 180.51 176.557C181.09 177.708 181.38 179.057 181.38 180.604ZM195.144 188L194.603 186.115H194.392C193.961 186.8 193.351 187.332 192.56 187.71C191.769 188.079 190.868 188.264 189.857 188.264C188.125 188.264 186.82 187.802 185.941 186.879C185.062 185.948 184.623 184.612 184.623 182.872V173.261H188.644V181.87C188.644 182.933 188.833 183.733 189.211 184.269C189.589 184.796 190.191 185.06 191.017 185.06C192.142 185.06 192.955 184.687 193.456 183.939C193.957 183.184 194.208 181.936 194.208 180.195V173.261H198.229V188H195.144ZM216.053 188H212.032V179.391C212.032 178.328 211.843 177.532 211.465 177.005C211.087 176.469 210.485 176.201 209.659 176.201C208.534 176.201 207.721 176.579 207.22 177.334C206.719 178.082 206.468 179.325 206.468 181.065V188H202.447V173.261H205.519L206.06 175.146H206.284C206.732 174.434 207.347 173.898 208.129 173.538C208.92 173.168 209.817 172.984 210.819 172.984C212.533 172.984 213.833 173.45 214.721 174.381C215.609 175.304 216.053 176.64 216.053 178.389V188ZM224.859 188.264C223.128 188.264 221.766 187.591 220.772 186.247C219.788 184.902 219.296 183.039 219.296 180.657C219.296 178.24 219.797 176.359 220.799 175.014C221.81 173.661 223.198 172.984 224.965 172.984C226.819 172.984 228.234 173.705 229.21 175.146H229.342C229.14 174.047 229.039 173.067 229.039 172.206V167.486H233.073V188H229.988L229.21 186.088H229.039C228.125 187.539 226.731 188.264 224.859 188.264ZM226.27 185.06C227.298 185.06 228.05 184.761 228.524 184.164C229.008 183.566 229.271 182.551 229.315 181.118V180.683C229.315 179.101 229.069 177.967 228.577 177.282C228.094 176.596 227.303 176.253 226.204 176.253C225.308 176.253 224.609 176.636 224.108 177.4C223.616 178.156 223.37 179.259 223.37 180.709C223.37 182.16 223.62 183.25 224.121 183.979C224.622 184.7 225.338 185.06 226.27 185.06ZM240.653 181.606H237.437L236.764 168.726H241.326L240.653 181.606ZM236.711 186.115C236.711 185.376 236.909 184.818 237.305 184.44C237.7 184.062 238.276 183.874 239.032 183.874C239.761 183.874 240.324 184.067 240.719 184.454C241.124 184.84 241.326 185.394 241.326 186.115C241.326 186.809 241.124 187.358 240.719 187.763C240.315 188.158 239.752 188.356 239.032 188.356C238.293 188.356 237.722 188.163 237.318 187.776C236.914 187.38 236.711 186.827 236.711 186.115Z" fill="#DCDCDC"/>
<path d="M177.391 103.147L157.723 63.7867C157.511 63.358 157.073 63.0868 156.597 63.0868H156.308H149.838H121.727H84.2306C84.3593 62.3402 84.5139 61.6184 84.7165 60.9513C84.9177 60.2842 84.5413 59.5788 83.8733 59.3774C83.2109 59.1774 82.5032 59.5527 82.3006 60.2212C82.031 61.1156 81.8174 62.08 81.6669 63.0854H77.9273C77.7754 63.0854 77.6303 63.121 77.4907 63.1758C77.4537 63.1895 77.4168 63.2059 77.3826 63.2237C77.2744 63.2772 77.1772 63.3415 77.0869 63.4237C77.0664 63.4429 77.0445 63.4566 77.0239 63.4758C76.9363 63.5676 76.8583 63.6703 76.7995 63.7881L57.1328 103.147C57.1273 103.157 57.1314 103.167 57.1259 103.179C57.0506 103.342 57 103.519 57 103.709V135.692C57 136.391 57.5639 136.955 58.2607 136.955H176.265C176.962 136.955 177.527 136.391 177.527 135.692V103.709C177.527 103.519 177.478 103.34 177.4 103.179C177.391 103.165 177.396 103.156 177.391 103.147ZM174.221 102.446H161.946L157.504 88.9578C157.533 88.8537 157.571 88.7523 157.571 88.64V69.122L174.221 102.446ZM78.8403 89.9029H155.158L159.293 102.446H74.7093L78.8403 89.9029ZM121.727 65.6126H149.839H155.047V87.3771H79.1894V65.6126H121.727ZM76.6653 69.6973V88.4373L72.0525 102.447H60.3029L76.6653 69.6973ZM175 134.428H59.5213V104.972H72.9628H161.033H175V134.428Z" fill="#DCDCDC"/>
<path d="M141.892 112.837C139.95 112.837 138.179 113.669 136.881 115.079H97.6913C96.4006 113.67 94.5568 112.837 92.6323 112.837C88.849 112.837 85.772 115.916 85.772 119.702C85.772 123.487 88.849 126.566 92.6323 126.566C94.5582 126.566 96.402 125.736 97.6913 124.324H136.884C138.179 125.735 139.95 126.566 141.894 126.566C145.675 126.566 148.752 123.487 148.752 119.702C148.75 115.916 145.673 112.837 141.892 112.837ZM92.6323 124.039C90.2424 124.039 88.296 122.094 88.296 119.701C88.296 117.307 90.2411 115.362 92.6323 115.362C94.0079 115.362 95.2741 115.996 96.1008 117.097C96.6675 117.855 96.9673 118.755 96.9673 119.701C96.9673 120.646 96.6675 121.549 96.1008 122.305C95.2741 123.408 94.0093 124.039 92.6323 124.039ZM99.1628 121.801C99.234 121.579 99.275 121.352 99.3243 121.127C99.3476 121.016 99.3832 120.905 99.4037 120.791C99.4612 120.435 99.4899 120.071 99.4899 119.707C99.4899 119.337 99.4612 118.972 99.4037 118.618C99.3832 118.503 99.3476 118.39 99.3243 118.278C99.2764 118.052 99.234 117.825 99.1655 117.608H135.358C135.286 117.829 135.247 118.055 135.199 118.278C135.174 118.39 135.137 118.503 135.118 118.618C135.059 118.974 135.03 119.337 135.03 119.707C135.03 120.071 135.059 120.435 135.118 120.791C135.137 120.905 135.174 121.017 135.199 121.13C135.244 121.357 135.286 121.582 135.358 121.801H99.1628ZM141.892 124.039C140.518 124.039 139.26 123.41 138.432 122.313C138.422 122.302 138.415 122.289 138.404 122.279C138.314 122.156 138.24 122.03 138.164 121.897C138.113 121.811 138.06 121.73 138.016 121.643C137.956 121.52 137.906 121.398 137.857 121.271C137.825 121.187 137.787 121.109 137.761 121.027C137.716 120.883 137.683 120.73 137.654 120.582C137.638 120.513 137.617 120.445 137.609 120.378C137.572 120.156 137.556 119.929 137.556 119.702C137.556 118.756 137.856 117.855 138.424 117.101C139.25 115.997 140.517 115.363 141.894 115.363C144.283 115.363 146.228 117.308 146.228 119.702C146.227 122.096 144.282 124.039 141.892 124.039Z" fill="#DCDCDC"/>
<path d="M71.7761 56.7954C71.9883 57.2597 72.4455 57.5351 72.9259 57.5351C73.1011 57.5351 73.2777 57.4995 73.4488 57.4214C74.0839 57.1324 74.3631 56.3831 74.0743 55.7475L70.922 48.8205C70.6345 48.1877 69.8872 47.9055 69.2507 48.1945C68.6156 48.4836 68.3364 49.2328 68.6238 49.867L71.7761 56.7954Z" fill="#DCDCDC"/>
<path d="M77.098 55.3516C77.2431 55.4051 77.3923 55.4311 77.5401 55.4311C78.052 55.4311 78.5338 55.1174 78.7227 54.6119L80.6062 49.5712C80.8512 48.9178 80.5199 48.1904 79.867 47.9466C79.2127 47.7014 78.4859 48.0343 78.2423 48.689L76.3588 53.7284C76.1124 54.3791 76.4437 55.1078 77.098 55.3516Z" fill="#DCDCDC"/>
<path d="M62.8338 57.6707L67.8709 59.5555C68.0146 59.6103 68.1652 59.6349 68.313 59.6349C68.8249 59.6349 69.3054 59.3212 69.4956 58.8158C69.7406 58.1624 69.4094 57.4351 68.7565 57.1899L63.7194 55.3037C63.0665 55.0599 62.3396 55.3927 62.096 56.0461C61.8496 56.6967 62.1822 57.4268 62.8338 57.6707Z" fill="#DCDCDC"/>
<path d="M86.1278 56.9145C86.485 56.9145 86.8396 56.7652 87.09 56.4721C87.6307 55.8379 88.2521 55.2667 88.9338 54.7722C89.4964 54.364 89.625 53.575 89.2158 53.0093C88.8051 52.4463 88.0181 52.3175 87.4541 52.7271C86.6123 53.338 85.8431 54.0448 85.1696 54.8311C84.7179 55.3612 84.7795 56.157 85.3106 56.6131C85.5488 56.8145 85.839 56.9145 86.1278 56.9145Z" fill="#DCDCDC"/>
<path d="M117.666 56.5639L120.347 57.4309C120.476 57.4707 120.605 57.4912 120.733 57.4912C121.268 57.4912 121.761 57.1501 121.935 56.6159C122.149 55.953 121.786 55.242 121.122 55.027L118.441 54.1599C117.774 53.949 117.066 54.3092 116.853 54.9722C116.639 55.6393 117.002 56.3502 117.666 56.5639Z" fill="#DCDCDC"/>
<path d="M125.747 59.124C126.673 59.3993 127.587 59.6637 128.485 59.9075C128.594 59.9376 128.708 59.9513 128.813 59.9513C129.372 59.9513 129.881 59.5801 130.033 59.0185C130.215 58.3459 129.818 57.6515 129.146 57.4706C128.267 57.2309 127.373 56.9748 126.469 56.7036C125.797 56.4995 125.096 56.8857 124.9 57.5528C124.699 58.2227 125.079 58.9253 125.747 59.124Z" fill="#DCDCDC"/>
<path d="M134.098 61.1814C135.117 61.3567 136.093 61.4827 136.996 61.5581C137.033 61.5595 137.068 61.5608 137.103 61.5608C137.753 61.5608 138.303 61.0622 138.357 60.402C138.415 59.7061 137.902 59.098 137.207 59.0377C136.376 58.9665 135.471 58.8514 134.52 58.6884C133.831 58.5761 133.181 59.0336 133.065 59.7198C132.948 60.4102 133.411 61.0636 134.098 61.1814Z" fill="#DCDCDC"/>
<path d="M93.3083 52.7477C93.4041 52.7477 93.5027 52.7381 93.6012 52.7148C94.4211 52.5189 95.2971 52.3778 96.2046 52.2929C96.8986 52.2285 97.4078 51.6135 97.3435 50.919C97.2791 50.2259 96.6645 49.6986 95.9706 49.7794C94.9454 49.8753 93.9516 50.0355 93.0195 50.2574C92.3406 50.4191 91.9217 51.0985 92.0805 51.7779C92.2187 52.3559 92.7375 52.7477 93.3083 52.7477Z" fill="#DCDCDC"/>
<path d="M109.635 54.1147C110.521 54.3585 111.418 54.6188 112.314 54.8859C112.436 54.9201 112.558 54.9379 112.677 54.9379C113.22 54.9379 113.723 54.5845 113.884 54.038C114.084 53.3695 113.705 52.6655 113.037 52.4655C112.122 52.1915 111.21 51.9299 110.305 51.6806C109.634 51.4957 108.937 51.8902 108.753 52.5627C108.565 53.2325 108.962 53.9298 109.635 54.1147Z" fill="#DCDCDC"/>
<path d="M101.576 52.371C102.463 52.4683 103.365 52.6052 104.262 52.7765C104.344 52.7915 104.42 52.7998 104.502 52.7998C105.095 52.7998 105.623 52.3779 105.738 51.7752C105.871 51.0903 105.424 50.4287 104.738 50.2972C103.777 50.1109 102.805 49.9657 101.852 49.8602C101.157 49.7904 100.536 50.2848 100.46 50.978C100.384 51.6724 100.883 52.2957 101.576 52.371Z" fill="#DCDCDC"/>
<path d="M144.84 39.9636C143.697 40.1772 142.624 40.7073 141.739 41.4977C141.217 41.9621 141.173 42.7606 141.637 43.2798C141.884 43.5606 142.233 43.7031 142.579 43.7031C142.88 43.7031 143.179 43.5962 143.417 43.3825C143.949 42.9058 144.62 42.5744 145.304 42.4456C145.986 42.3182 146.44 41.658 146.312 40.9731C146.186 40.2841 145.523 39.8307 144.84 39.9636Z" fill="#DCDCDC"/>
<path d="M144.619 57.8104C143.966 58.2131 143.214 58.5281 142.381 58.7445C141.707 58.9171 141.3 59.6061 141.475 60.2828C141.621 60.8526 142.134 61.2307 142.697 61.2307C142.801 61.2307 142.906 61.2184 143.012 61.1896C144.092 60.9102 145.079 60.4965 145.949 59.9595C146.542 59.5924 146.723 58.8144 146.357 58.2199C145.988 57.6268 145.21 57.4405 144.619 57.8104Z" fill="#DCDCDC"/>
<path d="M158.682 46.4576C158.504 47.1315 158.902 47.8233 159.574 48.0014C159.684 48.0301 159.79 48.0438 159.9 48.0438C160.457 48.0438 160.967 47.6712 161.119 47.1041C161.362 46.1932 161.546 45.2097 161.674 44.1715C161.76 43.4797 161.27 42.8482 160.579 42.7647C159.889 42.6757 159.256 43.1674 159.17 43.8619C159.057 44.7851 158.892 45.6577 158.682 46.4576Z" fill="#DCDCDC"/>
<path d="M150.32 47.5945C150.348 47.5945 150.376 47.5945 150.4 47.5932C151.098 47.548 151.627 46.948 151.582 46.2521C151.501 45.0467 151.248 43.9756 150.827 43.0729C150.533 42.4428 149.782 42.1647 149.148 42.4633C148.517 42.7592 148.246 43.5112 148.542 44.1427C148.83 44.7605 149.004 45.5248 149.063 46.4165C149.104 47.0822 149.661 47.5945 150.32 47.5945Z" fill="#DCDCDC"/>
<path d="M140.797 46.4111C140.139 46.622 139.781 47.3562 139.984 48.0192C140.274 48.9781 140.793 49.9246 141.528 50.83C141.777 51.1382 142.14 51.2971 142.509 51.2971C142.787 51.2971 143.069 51.2039 143.303 51.0149C143.845 50.5766 143.929 49.7807 143.489 49.2397C142.961 48.5877 142.595 47.9288 142.367 47.1782C142.148 46.522 141.453 46.2015 140.797 46.4111Z" fill="#DCDCDC"/>
<path d="M148.157 52.4641C147.936 52.3847 147.717 52.297 147.497 52.2025C146.866 51.9258 146.12 52.2162 145.838 52.8559C145.562 53.4956 145.854 54.2393 146.494 54.5174C146.845 54.6695 147.203 54.8078 147.559 54.9311C147.661 55.2913 147.925 55.6023 148.299 55.7543C148.452 55.8173 148.614 55.8475 148.773 55.8475C149.12 55.8475 149.457 55.7023 149.695 55.4434C150.293 55.4379 150.82 55.0092 150.926 54.3996C151.002 53.9668 150.849 53.5476 150.553 53.2654C150.658 52.9093 150.756 52.5627 150.846 52.2271C151.027 51.5532 150.626 50.8615 149.953 50.6834C149.282 50.5081 148.589 50.9067 148.41 51.5806C148.332 51.8669 148.248 52.1628 148.157 52.4641Z" fill="#DCDCDC"/>
<path d="M155.168 54.7352C155.362 54.7352 155.559 54.69 155.746 54.5955C156.7 54.1038 157.566 53.4339 158.318 52.6066C158.783 52.0902 158.743 51.293 158.227 50.8231C157.713 50.3519 156.915 50.393 156.445 50.9094C155.9 51.5121 155.276 51.9957 154.592 52.3477C153.97 52.6669 153.725 53.4298 154.047 54.049C154.269 54.4846 154.712 54.7352 155.168 54.7352Z" fill="#DCDCDC"/>
<path d="M159.332 38.4554C159.348 38.743 159.456 38.9978 159.628 39.1992C159.819 39.5512 160.137 39.8142 160.698 39.8142C161.395 39.8142 161.964 39.2115 161.964 38.5143C161.964 37.8664 161.964 36.1459 160.561 36.1459C159.864 36.1459 159.288 36.8034 159.288 37.5006C159.288 37.5828 159.296 37.7184 159.306 37.9376C159.31 37.9486 159.31 37.9623 159.31 37.9732L159.332 38.4554Z" fill="#DCDCDC"/>
<path d="M100.856 82.0541C100.937 82.0541 101.019 82.0432 101.102 82.0281C102.028 81.8459 102.982 81.6158 103.941 81.3391C104.611 81.1473 104.998 80.4487 104.808 79.7789C104.616 79.1091 103.921 78.7077 103.246 78.9132C102.356 79.1652 101.469 79.3789 100.615 79.5488C99.9293 79.6816 99.4844 80.3487 99.6186 81.0309C99.7377 81.635 100.266 82.0541 100.856 82.0541Z" fill="#DCDCDC"/>
<path d="M84.321 77.601C85.0054 78.3735 85.7774 79.0708 86.6137 79.6735C86.8382 79.8351 87.0969 79.9118 87.3501 79.9118C87.743 79.9118 88.1262 79.7283 88.3754 79.3872C88.7833 78.8215 88.6546 78.0311 88.0893 77.6256C87.4035 77.1284 86.7711 76.5559 86.2086 75.9244C85.7459 75.3998 84.9493 75.3532 84.4264 75.8175C83.9063 76.2819 83.8584 77.0791 84.321 77.601Z" fill="#DCDCDC"/>
<path d="M92.2036 82.1226C93.1521 82.3267 94.1609 82.4582 95.1971 82.5075C95.219 82.5089 95.2395 82.5089 95.2601 82.5089C95.928 82.5089 96.4865 81.9815 96.5194 81.3089C96.5549 80.6117 96.0184 80.0186 95.3217 79.9844C94.4224 79.9419 93.5546 79.8282 92.7415 79.6529C92.0599 79.5145 91.3892 79.9364 91.24 80.6186C91.0908 81.3007 91.5219 81.9746 92.2036 82.1226Z" fill="#DCDCDC"/>
<path d="M82.9382 73.0176C82.9903 73.0176 83.0423 73.0135 83.0929 73.0067C83.7855 72.9245 84.2769 72.293 84.192 71.5999C84.0757 70.6548 83.9949 69.748 83.947 68.8837C83.9114 68.1878 83.353 67.6673 82.6193 67.6892C81.924 67.7262 81.3901 68.3207 81.4271 69.0179C81.4764 69.937 81.5626 70.9013 81.6844 71.9095C81.7666 72.5519 82.31 73.0176 82.9382 73.0176Z" fill="#DCDCDC"/>
<path d="M175.793 8.78047C172.435 8.78047 169.481 9.87493 167.172 11.1406L167.29 10.3201C167.297 10.2612 167.302 10.1996 167.302 10.142C167.302 8.27228 166.492 5.23 163.869 3.61914L164.669 1.76309C164.943 1.12203 164.646 0.378241 164.005 0.104285C163.364 -0.16967 162.625 0.124832 162.349 0.765889L161.511 2.71372C160.957 2.6055 160.36 2.53701 159.707 2.53701C159.051 2.53701 158.455 2.6055 157.899 2.71509L157.065 0.765889C156.79 0.123462 156.05 -0.17104 155.409 0.101546C154.767 0.378241 154.47 1.11929 154.746 1.76035L155.543 3.61914C152.921 5.22863 152.109 8.27228 152.109 10.142C152.109 10.2023 152.116 10.2612 152.123 10.3201L152.239 11.1365C149.934 9.87219 146.983 8.7791 143.622 8.7791C137.294 8.7791 134.313 14.0021 133.623 16.7622C133.574 16.9649 133.574 17.1745 133.623 17.3758C134.313 20.1359 137.294 25.3534 143.622 25.3534C147.837 25.3534 151.412 23.6289 153.799 22.0619L154.647 27.993C154.688 30.0271 156.054 32.9612 159.712 32.9612C163.368 32.9612 164.73 30.0258 164.771 27.9903L165.619 22.0577C168.01 23.6248 171.588 25.3507 175.798 25.3507C182.128 25.3507 185.103 20.1318 185.793 17.3731C185.843 17.1704 185.843 16.9608 185.793 16.7594C185.097 14.0034 182.122 8.78047 175.793 8.78047ZM156.374 22.2742H163.036L162.698 24.6412H156.713L156.374 22.2742ZM159.707 5.06426C164.406 5.06426 164.755 9.2777 164.781 10.064L163.853 16.5526L163.41 19.6442C163.41 19.6456 163.411 19.6469 163.41 19.6497L163.396 19.7469H156.013L155.999 19.6456L155.117 13.4706C155.117 13.4679 155.116 13.4665 155.116 13.4651L154.631 10.064C154.659 9.26263 155.017 5.06426 159.707 5.06426ZM153.397 19.2716C151.381 20.7674 147.83 22.8276 143.618 22.8276C138.407 22.8276 136.57 18.321 136.158 17.0717C136.568 15.8431 138.436 11.3063 143.618 11.3063C147.341 11.3063 150.544 12.9076 152.696 14.3719L153.367 19.0785L153.397 19.2716ZM162.246 27.8971C162.246 28.3218 162.123 30.4381 159.707 30.4381C157.384 30.4381 157.173 28.4861 157.164 27.8971C157.164 27.8368 157.16 27.778 157.15 27.719L157.072 27.1684H162.336L162.256 27.719C162.249 27.7766 162.246 27.8355 162.246 27.8971ZM175.793 22.8276C171.592 22.8276 168.04 20.7674 166.012 19.2716L166.239 17.7018L166.715 14.3705C168.868 12.9035 172.078 11.3036 175.794 11.3036C181.007 11.3036 182.841 15.8225 183.25 17.0663C182.839 18.3182 181.001 22.8276 175.793 22.8276Z" fill="#DCDCDC"/>
</svg>
