<?xml version="1.0" encoding="utf-8"?>
<!-- Generator: Adobe Illustrator 27.8.1, SVG Export Plug-In . SVG Version: 6.00 Build 0)  -->
<svg version="1.1" id="Layer_1" xmlns="http://www.w3.org/2000/svg" xmlns:xlink="http://www.w3.org/1999/xlink" x="0px" y="0px"
	 viewBox="0 0 139.8 130.8" style="enable-background:new 0 0 139.8 130.8;" xml:space="preserve">
<style type="text/css">
	.st0{fill-rule:evenodd;clip-rule:evenodd;fill:url(#SVGID_1_);}
	.st1{fill-rule:evenodd;clip-rule:evenodd;fill:#00A5EE;}
	.st2{fill-rule:evenodd;clip-rule:evenodd;fill:#FFFFFF;}
	.st3{fill:#FFFFFF;}
</style>
<g>
	
		<linearGradient id="SVGID_1_" gradientUnits="userSpaceOnUse" x1="36.246" y1="159.9181" x2="81.4733" y2="205.1454" gradientTransform="matrix(1 0 0 -1 0 212.5485)">
		<stop  offset="0" style="stop-color:#00AC9B"/>
		<stop  offset="1" style="stop-color:#77C47C"/>
	</linearGradient>
	<path class="st0" d="M81.2,15.3c-2.9,0-5.6,1.1-7.7,3s-3.4,4.6-3.6,7.5c0,0.1,0,0.2,0,0.3v15.7c0,3-0.8,6-2.4,8.6
		c-1.6,2.6-3.8,4.8-6.4,6.2c-2.5,1.3-5.3,2.1-8.1,2.1c-2.8,0-5.6-0.7-8.1-2.1c-2.7-1.5-4.9-3.6-6.4-6.2c-1.6-2.6-2.4-5.6-2.4-8.6V25
		c0-0.6,0.1-1.3,0.4-1.9c0.2-0.6,0.6-1.1,1.1-1.6c0.5-0.4,1-0.8,1.6-1c0.6-0.2,1.2-0.4,1.9-0.3c0.6,0,1.2,0.1,1.8,0.4
		c0.6,0.2,1.1,0.6,1.5,1c0.5,0.4,0.8,1,1.1,1.6c0.2,0.6,0.4,1.2,0.4,1.9v16.9c0,1,0.2,2,0.6,3c0.4,0.9,1,1.8,1.8,2.4
		c1.3,1.2,3.1,1.8,4.8,1.8c1.8,0,3.5-0.7,4.8-1.8c0.8-0.7,1.4-1.5,1.8-2.4c0.4-0.9,0.6-1.9,0.6-3V26.2c0-1,0.1-2,0.3-3
		c1.4-6.4,7.2-10.3,13.1-10.3C76.4,12.9,79,13.7,81.2,15.3L81.2,15.3z M52.9,46.7c-1.3,0-2.5-0.5-3.4-1.3c-0.9-0.9-1.4-2.1-1.4-3.3
		V26c0-1.3,0.2-2.7,0.4-4c0.5-2.9,1.5-5.8,2.8-8.4C53.2,10,56,7,59.5,4.8c4.2-2.6,9.3-4,15.2-4c2.7,0,5,2.1,4.9,4.7
		C79.5,8,77.4,10,74.7,10c-7,0-11.8,2.5-14.6,7.6c-1.4,2.6-2.2,5.6-2.3,8.5v16.1C57.8,44.7,55.6,46.7,52.9,46.7z"/>
	<path class="st1" d="M90.4,51.5c-6.4,0-12.9-4.4-13.3-13.2V26.2c-0.1-2.4-1.9-3.6-3.6-3.6c-0.5,0-1.1,0.1-1.6,0.3
		c-0.5,0.2-0.9,0.6-1.3,1c0.7-2.4,2.1-4.4,4.1-5.9c2-1.5,4.3-2.3,6.8-2.3c0.1,0,0.1,0,0.2,0c0.4,0.3,0.8,0.7,1.2,1.1
		c1.8,1.8,3,4,3.6,6.4c0.2,1,0.3,2,0.3,3v12c0,1,0.4,1.9,1,2.6c0.7,0.7,1.6,1.1,2.6,1.1h0c1,0,1.9-0.4,2.6-1.1
		c0.7-0.7,1.1-1.6,1.1-2.6V25c0-0.6,0.1-1.3,0.4-1.9c0.2-0.6,0.6-1.1,1.1-1.6c0.5-0.4,1-0.8,1.6-1c0.6-0.2,1.2-0.4,1.9-0.3
		c0.6,0,1.2,0.1,1.8,0.4c0.6,0.2,1.1,0.6,1.5,1c0.4,0.4,0.8,1,1,1.6c0.2,0.6,0.4,1.2,0.4,1.9v13.2C103.4,47,96.9,51.5,90.4,51.5z
		 M98.9,0.8c1,0,1.9,0.3,2.7,0.8c0.8,0.5,1.4,1.3,1.8,2.2c0.4,0.9,0.5,1.9,0.3,2.8c-0.2,1-0.7,1.8-1.3,2.5c-0.7,0.7-1.6,1.2-2.5,1.3
		s-1.9,0.1-2.8-0.3c-0.9-0.4-1.7-1-2.2-1.8C94.3,7.6,94,6.6,94,5.7c0-0.6,0.1-1.3,0.4-1.9c0.2-0.6,0.6-1.1,1.1-1.6
		c0.5-0.5,1-0.8,1.6-1.1S98.3,0.8,98.9,0.8z M99,3.8c0.4,0,0.8,0.1,1.1,0.3c0.3,0.2,0.6,0.5,0.7,0.9c0.1,0.4,0.2,0.8,0.1,1.1
		c-0.1,0.4-0.3,0.7-0.5,1c-0.3,0.3-0.6,0.5-1,0.5c-0.4,0.1-0.8,0-1.1-0.1c-0.4-0.1-0.7-0.4-0.9-0.7C97.1,6.5,97,6.2,97,5.8
		c0-0.3,0.1-0.5,0.1-0.8c0.1-0.2,0.2-0.5,0.4-0.6C97.8,4.2,98,4.1,98.2,4S98.7,3.8,99,3.8z M91.1,8.9c0.6,0,1.3,0.2,1.8,0.6
		s1,0.9,1.2,1.5c0.2,0.6,0.3,1.3,0.2,1.9c-0.1,0.6-0.4,1.2-0.9,1.7c-0.5,0.5-1,0.8-1.7,0.9c-0.6,0.1-1.3,0.1-1.9-0.2
		c-0.6-0.2-1.1-0.7-1.5-1.2c-0.4-0.5-0.5-1.2-0.5-1.8c0-0.4,0.1-0.9,0.2-1.2c0.2-0.4,0.4-0.8,0.7-1.1c0.3-0.3,0.7-0.5,1.1-0.7
		C90.2,9,90.6,8.9,91.1,8.9z M91.1,11c0.3,0,0.5,0.1,0.7,0.2c0.2,0.1,0.4,0.3,0.5,0.6c0.1,0.2,0.1,0.5,0.1,0.8
		c-0.1,0.3-0.2,0.5-0.4,0.7c-0.2,0.2-0.4,0.3-0.7,0.4c-0.3,0.1-0.5,0-0.8-0.1c-0.2-0.1-0.4-0.3-0.6-0.5c-0.1-0.2-0.2-0.5-0.2-0.7
		c0-0.3,0.1-0.7,0.4-0.9C90.4,11.1,90.8,11,91.1,11z"/>
</g>
<g>
	<path class="st2" d="M2.1,102.2c1.4,1.7,3.6,2.6,6.5,2.6c1.2,0,2.4-0.2,3.6-0.6c0.9-0.4,1.7-0.9,2.4-1.5c0.6-0.5,1.1-1.1,1.5-1.7
		l0.1,3.3h4.2c0-0.5,0-0.9,0-1.4V81.8H16v10.4c0,1.4-0.2,2.8-0.6,4.2c-0.4,1.3-1.1,2.4-2,3.3c-1.1,0.9-2.5,1.4-3.9,1.3
		c-0.7,0-1.4-0.1-2-0.3c-0.7-0.3-1.2-0.6-1.7-1.1c-0.9-1-1.3-2.5-1.3-4.6V81.8H0v13.5C0,98.2,0.7,100.5,2.1,102.2z M28.3,92.4
		c0-1.2,0.3-2.3,0.8-3.4c0.6-1,1.4-1.9,2.4-2.5c1-0.6,2.1-1,3.3-0.9c0.8,0,1.5,0.1,2.2,0.3l0.4-1.5l0.6-2.5
		c-0.3-0.1-0.6-0.2-0.9-0.2c-0.1,0-0.2,0-0.3,0c-0.4-0.1-0.9-0.1-1.3-0.1c-1.2,0-2.4,0.2-3.5,0.7c-0.9,0.4-1.7,0.9-2.4,1.6
		c-0.5,0.5-1,1.1-1.5,1.7l-0.1-3.6h-4.2c0,0.6,0,1.1,0,1.4v21.1h4.4V92.4z M50.5,104.3l4.2-12.7l4.3,12.7h6.3l7.8-22.7h-7l-4,14.6
		l-4.5-14.6h-5.6l-4.4,14.6l-4-14.6h-6.5h-0.7l0.9,2.8l6.8,19.9H50.5z M93.5,104.3V91c0-3.1-0.8-5.6-2.5-7.5
		c-1.6-1.9-4.2-2.8-7.7-2.8c-2.2-0.1-4.4,0.2-6.4,0.9c-1.4,0.5-2.7,1.2-3.8,2.1l2.9,4.3c0.8-0.5,1.7-1,2.6-1.3
		c1.2-0.4,2.5-0.6,3.8-0.6c1.1,0,2.1,0.2,3,0.7c0.4,0.2,0.8,0.6,1,1.1c0.2,0.4,0.3,0.9,0.3,1.4v0.5c-0.5-0.1-1.1-0.1-1.6-0.1
		c-0.8,0-1.6,0-2.4,0c-1.8,0-3.6,0.3-5.3,0.9c-1.5,0.6-2.8,1.5-3.8,2.8c-0.9,1.3-1.4,2.9-1.4,4.5c-0.1,1.5,0.4,3,1.3,4.3
		c0.8,1,1.8,1.7,3,2.2c1.1,0.4,2.2,0.6,3.4,0.6c3,0,5.3-0.9,6.9-2.8l0.2,2.1L93.5,104.3L93.5,104.3z M85.4,99c-0.9,0.7-1.9,1-3,1
		c-2.3,0-3.4-0.9-3.4-2.8c0-0.5,0.1-0.9,0.3-1.3c0.2-0.4,0.5-0.8,0.9-1c0.8-0.5,2.2-0.8,4.1-0.8c0.5,0,1,0,1.5,0.1
		c0.4,0,0.8,0.1,0.9,0.1v1.8c0,0.6-0.1,1.1-0.3,1.6C86.2,98.2,85.8,98.6,85.4,99z M109,104.3l9.7-22.7h-7.6l-5.2,14.9l-5.4-14.9
		h-7.7l9.6,22.7H109z M134,98.8c-1.4,0.6-2.9,0.9-4.4,0.8c-1.6,0.1-3.1-0.4-4.3-1.4c-0.5-0.4-0.9-0.9-1.2-1.4
		c-0.3-0.6-0.4-1.2-0.5-1.8h16.2v-1.2c0-2.3-0.4-4.6-1.3-6.7c-0.8-1.9-2.1-3.5-3.8-4.6c-1.8-1.2-4-1.7-6.2-1.7
		c-2.2-0.1-4.4,0.5-6.3,1.7c-1.7,1.1-3.1,2.6-4,4.4c-0.9,1.9-1.4,4-1.4,6.2c0,2.1,0.5,4.2,1.5,6.1c1,1.8,2.5,3.3,4.3,4.3
		c2.1,1.1,4.4,1.6,6.7,1.5c1.7,0,3.4-0.2,5-0.7c1.1-0.4,2.2-0.8,3.3-1.5c0.8-0.5,1.4-0.9,1.7-1.1l-2.9-4.4
		C135.7,97.9,134.9,98.4,134,98.8z M124.2,88.6c0.4-0.7,1-1.3,1.6-1.7c0.8-0.5,1.7-0.7,2.7-0.7c0.9,0,1.8,0.2,2.6,0.7
		c0.7,0.4,1.2,1,1.5,1.7c0.3,0.6,0.5,1.3,0.5,2h-9.6C123.6,89.8,123.8,89.1,124.2,88.6z"/>
	<path class="st3" d="M37.5,84.3l0.6-2.5c-0.3-0.1-0.6-0.2-0.9-0.2h-0.7L37.5,84.3z"/>
	<path class="st2" d="M8.9,124.4c-0.3,0.3-0.7,0.6-1.1,0.8c-0.6,0.3-1.2,0.4-1.8,0.3c-0.8,0-1.6-0.2-2.2-0.6c-0.6-0.4-1.1-1-1.5-1.7
		c-0.4-0.8-0.5-1.6-0.5-2.4c0-0.8,0.2-1.7,0.5-2.4c0.3-0.7,0.8-1.3,1.5-1.8c0.6-0.4,1.2-0.6,1.9-0.6c0.7-0.1,1.4,0,2,0.3
		c0.4,0.2,0.8,0.4,1.1,0.7c0.3,0.3,0.5,0.6,0.7,0.9l1.2-1.1c-0.3-0.4-0.6-0.8-0.9-1.1c-0.5-0.4-1-0.7-1.5-1
		c-0.7-0.3-1.5-0.4-2.2-0.4c-0.8,0-1.7,0.2-2.5,0.5c-0.7,0.3-1.4,0.8-1.9,1.4c-0.5,0.6-1,1.3-1.2,2.1c-0.3,0.8-0.4,1.7-0.4,2.5
		c0,1.1,0.2,2.3,0.8,3.3c0.5,0.9,1.2,1.7,2.1,2.3c1,0.6,2,0.9,3.1,0.8c0.8,0,1.5-0.1,2.2-0.4c0.6-0.3,1.1-0.6,1.6-1
		c0.3-0.3,0.6-0.6,0.9-1l-1.2-1C9.4,123.9,9.2,124.1,8.9,124.4z M13.9,122.4c0-0.4,0.1-0.9,0.3-1.3c0.2-0.4,0.5-0.7,0.9-1
		c0.4-0.2,0.8-0.4,1.2-0.4c0.3,0,0.6,0,0.8,0.1l0.4-1.5c-0.1,0-0.3-0.1-0.4-0.1c-0.2,0-0.3,0-0.5,0c-0.4,0-0.9,0.1-1.3,0.3
		c-0.3,0.2-0.6,0.4-0.9,0.6c-0.2,0.2-0.4,0.4-0.5,0.6l-0.1-1.4h-1.6c0,0.2,0,0.4,0,0.5v8h1.6V122.4z M25.4,126.9c0-0.2,0-0.3,0-0.4
		v-5.3c0-0.4,0-0.9-0.2-1.2c-0.2-0.4-0.4-0.7-0.7-1c-0.7-0.6-1.6-0.9-2.6-0.8c-0.7,0-1.5,0.1-2.2,0.3c-0.4,0.2-0.9,0.4-1.3,0.7
		l0.8,1.1c0.3-0.2,0.6-0.4,1-0.5c0.5-0.2,1-0.3,1.5-0.3c0.5,0,1.1,0.1,1.5,0.4c0.2,0.2,0.4,0.4,0.5,0.6c0.1,0.2,0.1,0.5,0.1,0.8v0.3
		c-0.1,0-0.2,0-0.5,0c-0.2,0-0.5,0-0.8-0.1c-0.3,0-0.6,0-0.8,0c-1-0.1-1.9,0.2-2.7,0.8c-0.3,0.3-0.6,0.6-0.7,1
		c-0.2,0.4-0.2,0.8-0.2,1.2c0,0.6,0.1,1.1,0.4,1.6c0.3,0.4,0.7,0.7,1.1,0.8c0.4,0.2,0.9,0.3,1.4,0.3c0.5,0,1.1-0.1,1.6-0.3
		c0.5-0.2,0.9-0.5,1.2-0.9l0,1L25.4,126.9L25.4,126.9z M23.5,124.8c-0.2,0.3-0.5,0.6-0.9,0.8c-0.4,0.2-0.7,0.3-1.1,0.3
		c-0.5,0-0.9-0.1-1.3-0.4c-0.2-0.1-0.3-0.3-0.4-0.5c-0.1-0.2-0.1-0.4-0.1-0.6c0-0.3,0.1-0.5,0.2-0.8c0.1-0.3,0.4-0.5,0.6-0.7
		c0.4-0.2,0.9-0.3,1.4-0.3c0.3,0,0.5,0,0.8,0c0.3,0,0.5,0,0.7,0.1c0.1,0,0.3,0,0.4,0.1v1C23.8,124.2,23.7,124.5,23.5,124.8z
		 M29.9,126.9v-7.2h2.4v-1.4h-2.4v-0.6c-0.1-0.6,0.1-1.1,0.4-1.6c0.1-0.2,0.3-0.3,0.5-0.4c0.2-0.1,0.4-0.1,0.6-0.1
		c0.5,0,1,0.2,1.4,0.6l0.8-1.1c-0.3-0.3-0.7-0.6-1.2-0.7c-0.4-0.1-0.9-0.2-1.3-0.2c-0.5,0-1,0.1-1.4,0.3c-0.5,0.2-0.8,0.6-1.1,1.1
		c-0.3,0.6-0.4,1.2-0.4,1.9v0.7h-1.5v1.4h1.5v7.2H29.9z M34.9,126.4c0.3,0.3,0.6,0.5,0.9,0.6c0.3,0.1,0.7,0.2,1.1,0.1
		c0.4,0,0.9-0.1,1.3-0.2c0.4-0.2,0.8-0.4,1.1-0.7l-0.7-1c-0.2,0.2-0.4,0.3-0.6,0.4c-0.2,0.1-0.5,0.2-0.8,0.1c-0.2,0-0.3,0-0.5-0.1
		c-0.2-0.1-0.3-0.2-0.4-0.3c-0.3-0.4-0.4-0.9-0.3-1.4v-4.2h2.5v-1.4h-2.5v-2.8h-1.6v2.8h-1.5v1.4h1.5v4.4
		C34.2,124.9,34.5,125.7,34.9,126.4z M42.3,116.8V115h-1.8v1.9H42.3z M42.2,126.9v-8.5h-1.6v8.5L42.2,126.9L42.2,126.9z M46.2,122.9
		c0-0.5,0.1-1.1,0.2-1.6c0.1-0.5,0.4-0.9,0.8-1.3c0.4-0.3,0.9-0.5,1.5-0.5c0.3,0,0.5,0,0.8,0.1c0.2,0.1,0.5,0.2,0.7,0.4
		c0.4,0.5,0.6,1.1,0.5,1.8v5h1.6v-5.1c0-0.9-0.2-1.9-0.8-2.6c-0.3-0.3-0.7-0.6-1.1-0.8c-0.4-0.2-0.9-0.2-1.3-0.2
		c-0.5,0-0.9,0.1-1.3,0.2c-0.3,0.1-0.6,0.3-0.9,0.6c-0.2,0.2-0.4,0.4-0.6,0.7l-0.1-1.3h-1.6c0,0.2,0,0.4,0,0.5v8h1.6V122.9
		L46.2,122.9z M56,130.5c0.7,0.2,1.4,0.3,2,0.3c1.1,0.1,2.2-0.3,3-1c0.4-0.4,0.6-0.8,0.8-1.3c0.2-0.5,0.3-1,0.2-1.5v-8.2
		c-0.5-0.2-0.9-0.3-1.4-0.4c-0.6-0.1-1.3-0.2-1.9-0.2c-0.9,0-1.7,0.2-2.5,0.6c-0.7,0.4-1.3,0.9-1.7,1.6c-0.4,0.7-0.6,1.5-0.6,2.4
		c0,0.7,0.1,1.5,0.4,2.2c0.3,0.6,0.7,1.1,1.3,1.5c0.6,0.4,1.4,0.6,2.1,0.6c0.4,0,0.9-0.1,1.3-0.2c0.3-0.1,0.6-0.3,0.8-0.5
		c0.2-0.2,0.4-0.3,0.5-0.4v1c0,0.6-0.2,1.3-0.6,1.8c-0.2,0.2-0.5,0.4-0.8,0.5c-0.3,0.1-0.6,0.2-1,0.1c-0.5,0-1-0.1-1.5-0.2
		c-0.4-0.1-0.7-0.3-1-0.5l-0.8,1.2C55.1,130.1,55.6,130.3,56,130.5L56,130.5z M60.2,124.4c-0.2,0.3-0.4,0.6-0.8,0.8
		c-0.4,0.2-0.9,0.3-1.3,0.3c-0.5,0-1-0.1-1.4-0.4c-0.4-0.3-0.6-0.6-0.8-1c-0.2-0.5-0.2-0.9-0.2-1.4c0-0.6,0.1-1.1,0.4-1.6
		c0.3-0.5,0.6-0.8,1.1-1.1c0.5-0.3,1-0.4,1.6-0.4c0.4,0,0.8,0,1.2,0.1c0.3,0.1,0.4,0.1,0.6,0.2v3.5
		C60.5,123.7,60.4,124.1,60.2,124.4L60.2,124.4z M68.1,126c0.5,0.4,1,0.6,1.5,0.8c0.6,0.2,1.3,0.3,2,0.3c0.8,0,1.5-0.1,2.2-0.5
		c0.6-0.3,1.1-0.7,1.5-1.3c0.4-0.5,0.6-1.2,0.6-1.9c0-0.7-0.1-1.4-0.5-2c-0.3-0.5-0.8-0.9-1.3-1.2c-0.5-0.3-1.1-0.5-1.7-0.6
		c-0.7-0.1-1.5-0.4-2.1-0.8c-0.2-0.1-0.4-0.3-0.6-0.6c-0.1-0.2-0.2-0.5-0.2-0.8c0-0.3,0.1-0.6,0.2-0.8c0.2-0.3,0.4-0.5,0.7-0.7
		c0.4-0.2,0.8-0.3,1.3-0.3c0.4,0,0.9,0.1,1.3,0.2c0.3,0.1,0.6,0.3,0.9,0.5c0.2,0.1,0.3,0.3,0.5,0.5l1.2-1.1
		c-0.2-0.2-0.4-0.5-0.6-0.7c-0.4-0.3-0.8-0.6-1.2-0.7c-0.6-0.2-1.3-0.3-1.9-0.3c-0.8,0-1.5,0.1-2.2,0.5c-0.6,0.3-1,0.7-1.4,1.2
		c-0.3,0.5-0.5,1.1-0.5,1.7c0,0.4,0.1,0.9,0.2,1.3c0.2,0.4,0.4,0.8,0.7,1.1c0.7,0.6,1.6,1,2.5,1.2c0.8,0.1,1.5,0.4,2.2,0.8
		c0.2,0.2,0.4,0.4,0.6,0.7c0.1,0.3,0.2,0.6,0.2,0.9c0,0.3,0,0.6-0.2,0.8c-0.1,0.3-0.3,0.5-0.5,0.7c-0.5,0.4-1.2,0.6-1.9,0.6
		c-0.5,0-0.9-0.1-1.4-0.3c-0.4-0.2-0.7-0.4-1.1-0.6c-0.3-0.2-0.6-0.5-0.8-0.8l-1.2,1.1C67.4,125.4,67.8,125.7,68.1,126L68.1,126z
		 M84.3,126.5c0.7-0.4,1.2-1,1.6-1.7c0.4-0.7,0.6-1.5,0.6-2.2s-0.2-1.6-0.6-2.2c-0.4-0.7-0.9-1.3-1.6-1.7c-0.7-0.4-1.5-0.6-2.3-0.6
		c-0.8,0-1.6,0.2-2.3,0.6c-0.7,0.4-1.2,1-1.6,1.6c-0.4,0.7-0.6,1.5-0.6,2.3s0.2,1.6,0.6,2.3c0.4,0.7,0.9,1.3,1.6,1.7
		c0.7,0.4,1.5,0.6,2.3,0.6C82.8,127.1,83.6,126.9,84.3,126.5L84.3,126.5z M80.5,125.2c-0.4-0.3-0.7-0.7-1-1.2
		c-0.2-0.5-0.3-1-0.3-1.5c0-0.5,0.1-1,0.3-1.5c0.2-0.5,0.6-0.9,1-1.2c0.4-0.3,1-0.4,1.5-0.4s1.1,0.2,1.5,0.4c0.4,0.3,0.8,0.7,1,1.2
		c0.2,0.5,0.3,1,0.3,1.5c0,0.5-0.1,1-0.3,1.5c-0.2,0.5-0.5,0.9-1,1.2c-0.4,0.3-1,0.5-1.5,0.5C81.5,125.7,80.9,125.5,80.5,125.2
		L80.5,125.2z M89.9,126.9v-12.3h-1.6v12.3L89.9,126.9L89.9,126.9z M92.9,126.1c0.3,0.3,0.7,0.6,1.1,0.8c0.4,0.2,0.9,0.2,1.3,0.2
		c0.5,0,0.9-0.1,1.3-0.2c0.3-0.1,0.6-0.3,0.9-0.6c0.2-0.2,0.4-0.4,0.6-0.6l0.1,1.3h1.6c0-0.2,0-0.3,0-0.5v-8h-1.6v4
		c0,0.5-0.1,1.1-0.2,1.6c-0.1,0.5-0.4,0.9-0.8,1.3c-0.4,0.4-0.9,0.5-1.5,0.5c-0.3,0-0.5,0-0.8-0.1c-0.2-0.1-0.5-0.2-0.6-0.4
		c-0.4-0.5-0.5-1.1-0.5-1.7v-5h-1.6v5.1C92,124.4,92.3,125.3,92.9,126.1z M103.3,126.4c0.3,0.3,0.6,0.5,0.9,0.6
		c0.3,0.1,0.7,0.2,1.1,0.2c0.4,0,0.9-0.1,1.3-0.2c0.4-0.2,0.8-0.4,1.1-0.7l-0.7-1c-0.2,0.2-0.4,0.3-0.6,0.4
		c-0.2,0.1-0.5,0.2-0.8,0.1c-0.2,0-0.3,0-0.5-0.1c-0.2-0.1-0.3-0.2-0.4-0.3c-0.3-0.4-0.4-0.9-0.3-1.4v-4.2h2.5v-1.4h-2.5v-2.8h-1.6
		v2.8h-1.5v1.4h1.5v4.4C102.6,124.9,102.9,125.7,103.3,126.4z M110.7,116.8V115h-1.8v1.9H110.7z M110.6,126.9v-8.5H109v8.5
		L110.6,126.9L110.6,126.9z M119.3,126.5c0.7-0.4,1.2-1,1.6-1.7c0.4-0.7,0.6-1.5,0.6-2.3c0-0.8-0.2-1.6-0.6-2.3
		c-0.4-0.7-0.9-1.2-1.6-1.6c-0.7-0.4-1.5-0.6-2.3-0.6c-0.8,0-1.6,0.2-2.2,0.6c-0.7,0.4-1.2,1-1.6,1.7c-0.4,0.7-0.6,1.5-0.6,2.3
		c0,0.8,0.2,1.6,0.6,2.3c0.4,0.7,0.9,1.3,1.6,1.7c0.7,0.4,1.5,0.6,2.3,0.6C117.8,127.1,118.6,126.9,119.3,126.5L119.3,126.5z
		 M115.5,125.2c-0.4-0.3-0.7-0.7-1-1.2c-0.2-0.5-0.3-1-0.3-1.5c0-0.5,0.1-1,0.3-1.5c0.2-0.5,0.6-0.9,1-1.2c0.4-0.3,1-0.5,1.5-0.4
		c0.5,0,1.1,0.1,1.5,0.4c0.4,0.3,0.8,0.7,1,1.2c0.2,0.5,0.3,1,0.3,1.5c0,0.5-0.1,1-0.3,1.5c-0.2,0.5-0.5,0.9-1,1.2
		c-0.4,0.3-1,0.5-1.5,0.5C116.5,125.7,115.9,125.5,115.5,125.2z M124.9,122.9c0-0.5,0.1-1.1,0.2-1.6c0.1-0.5,0.4-0.9,0.8-1.3
		c0.4-0.3,0.9-0.5,1.5-0.5c0.3,0,0.5,0,0.8,0.1c0.2,0.1,0.5,0.2,0.7,0.4c0.4,0.5,0.6,1.1,0.5,1.8v5h1.6v-5.1c0-0.9-0.2-1.9-0.8-2.6
		c-0.3-0.3-0.7-0.6-1.1-0.8c-0.4-0.2-0.9-0.2-1.3-0.2c-0.5,0-0.9,0.1-1.3,0.2c-0.3,0.1-0.6,0.3-0.9,0.6c-0.2,0.2-0.4,0.4-0.6,0.7
		l-0.1-1.3h-1.6c0,0.2,0,0.4,0,0.5v8h1.6V122.9L124.9,122.9z M136.3,127.1c0.6,0,1.2-0.1,1.7-0.3c0.5-0.2,0.9-0.5,1.3-0.9
		c0.3-0.4,0.5-0.9,0.5-1.4c0-0.5-0.1-1-0.4-1.3c-0.3-0.4-0.6-0.6-1-0.8c-0.5-0.2-0.9-0.4-1.4-0.5c-0.6-0.1-1.1-0.3-1.6-0.5
		c-0.2,0-0.3-0.2-0.4-0.3s-0.2-0.3-0.2-0.5c0-0.2,0-0.3,0.1-0.5c0.1-0.2,0.2-0.3,0.4-0.4c0.4-0.2,0.8-0.3,1.3-0.3
		c0.5,0,0.9,0.1,1.3,0.2c0.3,0.1,0.7,0.3,0.9,0.6l0.9-1.1c-0.4-0.4-0.8-0.6-1.3-0.8c-0.6-0.2-1.2-0.3-1.8-0.3
		c-0.5,0-1.1,0.1-1.6,0.3c-0.5,0.2-0.9,0.5-1.2,0.9c-0.3,0.4-0.5,0.9-0.5,1.4c0,0.5,0.1,0.9,0.4,1.3c0.3,0.3,0.6,0.6,1,0.8
		c0.4,0.2,0.8,0.3,1.3,0.5c0.5,0.1,1,0.2,1.4,0.4c0.3,0.1,0.5,0.2,0.7,0.4c0.2,0.2,0.2,0.4,0.2,0.6c0,0.2,0,0.4-0.1,0.5
		c-0.1,0.1-0.2,0.3-0.4,0.3c-0.4,0.2-0.9,0.3-1.4,0.3c-0.5,0-1-0.1-1.5-0.3c-0.4-0.2-0.8-0.4-1.1-0.7l-1,1.1c0.5,0.5,1,0.8,1.7,1
		S135.6,127.2,136.3,127.1L136.3,127.1z"/>
</g>
</svg>
